<svg xmlns="http://www.w3.org/2000/svg" xmlns:xlink="http://www.w3.org/1999/xlink" version="1.1" x="0px" y="0px" viewBox="0 0 100 100" enable-background="new 0 0 100 100" xml:space="preserve"><g><path d="M46.725,39.121c0,0.597-0.483,1.078-1.078,1.078h-0.153c0.098-0.042,0.153-0.066,0.153-0.066l-1.516,0h-0.61   c-0.83-0.378-1.766-0.591-2.757-0.591c-0.425,0-0.84,0.039-1.241,0.114c-0.299,0.056-0.591,0.131-0.873,0.225   c-0.22,0.073-0.434,0.157-0.642,0.252h-0.64l-1.192,0v0.066l-1.121,0.836c-0.193,0.143-0.419,0.214-0.643,0.214   c-0.328,0-0.654-0.15-0.864-0.433c-0.357-0.479-0.257-1.154,0.221-1.51l1.407-1.05c0.007-0.004,0.015-0.007,0.022-0.011   c0.035-0.027,0.071-0.044,0.107-0.066c0.027-0.013,0.051-0.028,0.078-0.042c0.035-0.015,0.074-0.025,0.108-0.037   c0.03-0.011,0.062-0.022,0.094-0.03c0.032-0.005,0.064-0.008,0.097-0.015c0.039-0.004,0.076-0.01,0.115-0.012l0.025-0.003h9.825   C46.244,38.04,46.725,38.524,46.725,39.121z"></path><path d="M66.664,41.127c-0.214,0.28-0.536,0.428-0.863,0.428c-0.225,0-0.455-0.072-0.65-0.219l-1.192-0.904h-1.178   c-0.593-0.368-1.26-0.644-1.977-0.807c-0.363-0.082-0.739-0.136-1.124-0.157c-0.122-0.007-0.246-0.01-0.371-0.01   c-1.119,0-2.169,0.272-3.075,0.746c-0.136,0.071-0.269,0.147-0.399,0.228h-1.34c-0.598,0-1.081-0.483-1.081-1.078   c0-0.598,0.484-1.081,1.081-1.081h9.827c0.009,0,0.028,0.003,0.028,0.003c0.04,0.003,0.081,0.008,0.12,0.013   c0.031,0.005,0.063,0.008,0.092,0.015c0.035,0.007,0.07,0.019,0.103,0.032c0.033,0.01,0.068,0.02,0.098,0.035   c0.029,0.015,0.059,0.03,0.087,0.047c0.032,0.02,0.067,0.035,0.098,0.059c0.007,0.007,0.018,0.01,0.025,0.016l1.481,1.122   C66.929,39.976,67.025,40.653,66.664,41.127z"></path><g><path d="M69.181,39.716c-0.031-0.103-0.063-0.209-0.095-0.317l-1.816,3.809v0.24c-0.014,0.296-0.198,0.198-0.198,0.198    c-0.353,0.099-0.423,0.564-0.423,0.564c-0.132,0.33-0.734,0.314-0.81,0.311c-0.068-0.464-0.261-0.713-0.323-0.783    c-0.319-1.327-1.123-2.484-2.23-3.305c-0.52-0.386-1.107-0.697-1.742-0.917h0c0,0,0,0,0,0c-0.307-0.107-0.625-0.191-0.953-0.252h0    c-0.409-0.077-0.831-0.117-1.264-0.117c-1.396,0-2.687,0.418-3.735,1.127c-0.077,0.052-0.153,0.106-0.227,0.161    c-0.251,0.186-0.486,0.389-0.703,0.608c-0.847,0.852-1.426,1.936-1.613,3.139l0.001-0.012c-3.008-2.317-6.039,0-6.039,0    c-0.223-1.292-0.901-2.443-1.876-3.308c-0.032-0.028-0.064-0.057-0.097-0.084c-0.28-0.239-0.584-0.454-0.906-0.643    c-0.979-0.573-2.139-0.905-3.383-0.905c-0.633,0-1.243,0.086-1.82,0.246c-0.247,0.068-0.488,0.151-0.722,0.245    c-0.292,0.118-0.572,0.256-0.838,0.413c-1.404,0.821-2.437,2.139-2.81,3.688c-0.063,0.07-0.256,0.319-0.324,0.783    c-0.076,0.003-0.678,0.019-0.81-0.311c0,0-0.07-0.465-0.423-0.564c0,0-0.183,0.099-0.198-0.198v-0.24l-2.049-4.297    c-0.031,0.106-0.063,0.21-0.093,0.312l1.888,4.027c0,0,0.071,0.282,0.028,0.395c0,0,0.141,0.861,0.804,1.072    c0,0,0.642,0.123,0.829,0.128c-0.001,0.255,0.11,0.557,0.243,0.909c0.388,2.901,3.058,5.147,6.294,5.147    c3.503,0,6.343-2.632,6.343-5.878c0-0.319-0.027-0.632-0.08-0.937l0.08,0.317c3.318-2.19,5.918,0,5.918,0l0.002-0.014    c-0.018,0.182-0.028,0.366-0.028,0.552c0,3.246,2.84,5.878,6.343,5.878c3.236,0,5.905-2.245,6.294-5.147    c0.133-0.352,0.245-0.654,0.243-0.909c0.187-0.004,0.829-0.128,0.829-0.128c0.663-0.212,0.804-1.072,0.804-1.072    c-0.042-0.113,0.028-0.395,0.028-0.395L69.181,39.716z M40.764,50.843c-3.416,0-6.186-2.53-6.186-5.651    c0-2.216,1.397-4.135,3.43-5.06c0.208-0.095,0.422-0.179,0.642-0.252c0.282-0.094,0.573-0.169,0.873-0.225    c0.401-0.074,0.816-0.114,1.241-0.114c0.991,0,1.927,0.213,2.757,0.591c0.402,0.183,0.779,0.405,1.126,0.661    c0.034,0.025,0.068,0.05,0.101,0.076c1.347,1.036,2.202,2.589,2.202,4.323C46.95,48.313,44.181,50.843,40.764,50.843z     M59.31,50.76c-3.416,0-6.186-2.53-6.186-5.651c0-1.718,0.84-3.258,2.165-4.294c0,0,0,0,0,0c0.174-0.136,0.357-0.264,0.547-0.382    c0.13-0.081,0.262-0.157,0.399-0.228c0.906-0.475,1.956-0.746,3.075-0.746c0.124,0,0.248,0.003,0.371,0.01    c0.385,0.021,0.761,0.074,1.124,0.157c0.716,0.162,1.383,0.439,1.977,0.807c1.638,1.017,2.714,2.732,2.714,4.678    C65.496,48.23,62.726,50.76,59.31,50.76z"></path><path d="M73.974,34.922c-0.392-0.62-1.061-0.816-1.737-0.734c0.004-0.005,0.009-0.01,0.013-0.015    c-0.028,0.008-0.054,0.016-0.08,0.024c-0.091,0.013-0.181,0.032-0.271,0.054c-0.039,0.01-0.078,0.021-0.116,0.032    c-0.389-11.636-4.284-18.334-8.759-22.185c-1.739-1.571-3.742-2.834-5.903-3.742c-1.754-0.736-3.606-1.242-5.491-1.501    c-0.607-0.083-1.218-0.143-1.83-0.169c-0.271-0.011-0.579-0.051-0.849-0.009c-0.012,0.002-0.025,0.001-0.038,0.002    c-0.072,0.004-0.135,0.05-0.153,0.118c-1.091,0.014-2.193,0.171-3.258,0.387c-1.775,0.36-3.503,0.958-5.118,1.777    c-2.059,1.045-3.923,2.461-5.49,4.155c-2.017,2.179-3.524,4.779-4.602,7.537c-1.481,3.789-2.172,7.855-2.431,11.901    c-0.034,0.528-0.059,1.056-0.079,1.585c-1.072-0.426-2.222-0.165-2.644,0.997c-0.284,0.781-0.244,1.673-0.156,2.484    c0.072,0.664,0.195,1.321,0.344,1.972c0.1,0.439,0.24,0.856,0.27,1.304c0.053,0.807,0.046,1.608,0.061,2.412    c0.004,0.231,0.074,0.477,0.108,0.705c0.07,0.459,0.139,0.918,0.201,1.378c0.193,1.414,0.351,2.816,0.787,4.186    c0.152,0.478,0.331,0.971,0.611,1.39c0.045,0.067,0.104,0.129,0.149,0.196v0.017c0,0.118-0.004,0.235,0.005,0.353    c0.071,0.902,0.563,1.648,1.474,1.816c0.129,0.786,0.315,1.564,0.51,2.335c0.311,1.235,0.677,2.456,1.095,3.659    c2.453,7.828,6.355,12.081,10.026,14.385c0.15,0.099,0.302,0.195,0.455,0.29c1.245,0.764,2.59,1.367,3.991,1.779    c0.601,0.177,1.269,0.396,1.897,0.428c0.102,0.005,0.205,0.008,0.307,0.01c0.68,0.106,1.264,0.153,1.722,0.171    c0.028,0.027,0.066,0.044,0.107,0.044c1.02-0.001,2.04-0.001,3.06-0.002c0.561,0,1.12-0.182,1.656-0.333    c0.756-0.213,1.495-0.478,2.215-0.79c1.409-0.611,2.719-1.411,3.923-2.353c3.59-2.631,7.238-7.252,9.41-15.344    c0.095-0.325,0.187-0.652,0.275-0.98c0.186-0.697,0.355-1.399,0.502-2.105c0.046-0.222,0.09-0.445,0.131-0.668    c0.014-0.077,0.063-0.21,0.065-0.305c0.991-0.19,1.476-1.073,1.47-2.047c0-0.046-0.007-0.093-0.004-0.139c0,0,0,0,0,0    c0.006-0.004,0.013-0.01,0.022-0.018c0.187-0.172,0.311-0.478,0.414-0.705c0.266-0.588,0.445-1.214,0.595-1.84    c0.189-0.79,0.357-1.607,0.428-2.418c0.081-0.936,0.306-1.858,0.389-2.792c0.04-0.456-0.01-0.939,0.011-1.401    c0.021-0.467,0.049-0.934,0.083-1.4c0.338-1.265,0.639-2.578,0.65-3.894C74.403,36.248,74.341,35.501,73.974,34.922z     M27.511,51.149C27.507,51.132,27.509,51.126,27.511,51.149L27.511,51.149z M53.22,69.836l-0.129-1.159h0.203    c1.462,0,2.647-1.185,2.647-2.647v-0.132H44.069v0.132c0,1.462,1.185,2.647,2.647,2.647h0.302    c-0.049,0.409-0.122,0.853-0.198,1.261c-4.574-0.68-5.777-3.804-5.777-3.804c0.191-1.27,2.412-3.844,2.412-3.844    c0.968,0.527,4.443,0.289,6.277,0.119c1.833,0.17,5.309,0.408,6.277-0.119c0,0,2.222,2.575,2.412,3.844    C58.422,66.133,57.321,68.993,53.22,69.836z M69.575,41.85c0,0-0.107,8.139-0.806,8.911c0,0-5.46,3.438-5.967,8.009l-0.762,2.857    c0,0-0.381,0.571-0.698,0.635c-0.318,0.064-0.825,0-0.825,0s-0.992-5.015-10.784-4.269c-9.508-0.859-10.784,4.269-10.784,4.269    s-0.508,0.064-0.825,0c-0.318-0.064-0.698-0.635-0.698-0.635l-0.762-2.857c-0.508-4.571-5.967-8.009-5.967-8.009    c-0.698-0.771-0.806-8.911-0.806-8.911l-0.142-0.888l-0.894,1.365v1.749l0.27,8.977c-0.843-0.137-1.262-0.8-1.295-1.623    c-0.008-0.195,0.026-0.301-0.077-0.465c-0.231-0.37-0.43-0.719-0.58-1.134c-0.455-1.262-0.676-2.603-0.825-3.932    c-0.088-0.779-0.213-1.554-0.333-2.328c-0.013-0.082-0.032-0.167-0.041-0.25c0.001-0.007,0.002-0.02,0.004-0.041    c0.005-0.07,0.013-0.139,0.016-0.209c0.017-0.411-0.007-0.825-0.027-1.235c-0.018-0.373-0.041-0.745-0.067-1.117    c-0.03-0.43-0.188-0.849-0.283-1.269c-0.242-1.068-0.443-2.186-0.361-3.286c0.043-0.572,0.178-1.25,0.651-1.631    c0.542-0.435,1.366-0.301,1.943-0.015c0.062,0.031,0.129,0.023,0.177-0.013c0.038,0.036,0.075,0.073,0.111,0.109    c0.649,0.661,1.242,1.554,1.459,2.466c0.287,1.207,0.051,2.441,0.18,3.66c0.009,0.079-0.003,0.154-0.028,0.222    c0.08,0.326,0.13,0.625,0.142,0.888c0,0,0.332-1.074,0.772-2.544l-0.778-1.658v-0.48l0.871,1.826    c0.819-2.748,1.938-6.636,2.035-7.683c0.004-0.049,0.007-0.091,0.007-0.127c0-1.27-1.862-7.279,0-10.242    c0,0,3.047-6.264,5.333-7.533c0,0,3.587,4.147,10.782,3.809c3.718,0.175,6.979-0.848,9.263-1.878    c2.136-0.963,3.417-1.931,3.417-1.931c2.285,1.27,5.333,7.533,5.333,7.533c1.862,2.963,0,8.973,0,10.242    c0,0.85,1.302,5.339,2.163,8.215l1.104-2.314v0.48l-1.009,2.151c0.197,0.656,0.365,1.209,0.481,1.587L69.575,41.85z     M73.348,43.511c0,0.005-0.001,0.011-0.002,0.017C73.346,43.468,73.35,43.485,73.348,43.511z M73.436,40.739    c-0.004,0.016-0.006,0.031-0.006,0.046c-0.027,0.374-0.05,0.748-0.07,1.122c-0.026,0.498-0.086,1.026-0.027,1.522    c0.004,0.033,0.011,0.069,0.013,0.103c-0.005,0.045-0.015,0.09-0.022,0.134c-0.033,0.215-0.066,0.431-0.099,0.647    c-0.08,0.527-0.159,1.055-0.226,1.584c-0.085,0.672-0.16,1.337-0.29,2.005c-0.121,0.624-0.265,1.247-0.461,1.852    c-0.089,0.276-0.188,0.55-0.311,0.813c-0.112,0.239-0.288,0.434-0.406,0.662c-0.121,0.233-0.037,0.593-0.096,0.857    c-0.136,0.613-0.516,1.023-1.105,1.163c0.002-0.012,0.004-0.024,0.006-0.035l0.274-9.138v-1.749l-0.703-1.074    c0.017-0.087,0.037-0.177,0.059-0.268c-0.021-0.124-0.026-0.251-0.025-0.37c0.003-0.299,0.05-0.599,0.098-0.894    c0.152-0.939,0.39-1.892,0.711-2.788c0.229-0.636,0.503-1.266,0.847-1.849c0.103-0.175,0.215-0.349,0.336-0.517    c0.256-0.068,0.538-0.104,0.79-0.08c1.07,0.102,1.327,1.267,1.354,2.164C74.117,38.03,73.791,39.416,73.436,40.739z"></path><path d="M35.237,45.11c-0.177,0-0.32,0.143-0.32,0.32c0,0.061,0.017,0.117,0.046,0.166l0.525-0.363    C35.43,45.157,35.339,45.11,35.237,45.11z"></path><path d="M34.986,45.627c0.058,0.074,0.149,0.122,0.251,0.122c0.177,0,0.32-0.144,0.32-0.32c0-0.061-0.017-0.117-0.046-0.166    L34.986,45.627z"></path><path d="M53.811,45.008c-0.177,0-0.32,0.143-0.32,0.32c0,0.061,0.017,0.117,0.046,0.166l0.525-0.363    C54.004,45.055,53.913,45.008,53.811,45.008z"></path><path d="M53.56,45.525c0.058,0.074,0.149,0.122,0.251,0.122c0.177,0,0.32-0.143,0.32-0.32c0-0.061-0.017-0.117-0.046-0.166    L53.56,45.525z"></path><path d="M64.971,45.145c-0.055-0.168-0.236-0.259-0.404-0.204c-0.058,0.019-0.106,0.053-0.143,0.096l0.509,0.386    C64.986,45.344,65.002,45.242,64.971,45.145z"></path><path d="M64.767,45.549c0.058-0.019,0.106-0.053,0.143-0.096L64.4,45.068c-0.053,0.079-0.07,0.18-0.038,0.277    C64.418,45.513,64.599,45.604,64.767,45.549z"></path><path d="M46.53,45.119c-0.059-0.074-0.15-0.122-0.252-0.122c-0.177,0-0.32,0.143-0.32,0.32c0,0.061,0.017,0.117,0.046,0.166    L46.53,45.119z"></path><path d="M46.278,45.636c0.177,0,0.32-0.144,0.32-0.32c0-0.061-0.017-0.117-0.046-0.166l-0.525,0.364    C46.085,45.589,46.176,45.636,46.278,45.636z"></path></g><path d="M57.975,39.608c-0.044,0.011-0.088,0.023-0.132,0.035c-0.203-0.014-0.407-0.026-0.61-0.035H57.975z"></path><path d="M79.261,74.386c-0.635,0-2.793-1.016-2.793-1.016c-1.397-0.381-1.727-0.381-2.387-0.508   c-0.66-0.127-1.041-0.127-1.549-0.508c-0.295-0.221-0.204-0.143-0.201-0.137c-0.005-0.002-0.06-0.047-0.306-0.243   c-0.635-0.508-1.89-0.889-1.834-1.396c0.056-0.508,0.14-0.762-0.283-1.27c-0.423-0.508-0.726-1.65-0.726-1.65   s-4.268,13.459-17.726,13.84c0,0-0.543,0.1-1.455,0.145c-0.911-0.045-1.455-0.145-1.455-0.145   c-13.459-0.381-17.726-13.84-17.726-13.84s-0.303,1.143-0.726,1.65c-0.423,0.508-0.339,0.762-0.283,1.27s-1.199,0.889-1.834,1.396   c-0.246,0.197-0.301,0.241-0.306,0.243c0.003-0.005,0.094-0.084-0.201,0.137c-0.508,0.381-0.889,0.381-1.549,0.508   c-0.66,0.127-0.99,0.127-2.387,0.508c0,0-2.159,1.016-2.793,1.016c-0.635,0-1.999,0.889-1.999,0.889v18.066h31.182h0.157H81.26   V75.275C81.26,75.275,79.896,74.386,79.261,74.386z"></path></g></svg>